<svg id="Layer_1" data-name="Layer 1" xmlns="http://www.w3.org/2000/svg" viewBox="0 0 144 97.71"><title>catlogo</title><path d="M142.52,87.67l-37.41,2.25c10.82-26.79,9.23-61.95-.49-66.59-5.41-2.58-22.14,22-22.14,22L46.79,47S23,19.12,21.72,25.55c-5.88,30.22-4.94,54.49,3.21,71L1.3,98.16a1.39,1.39,0,0,0,.09,2.78h.1l24.89-1.69c8,13.9,21.63,21.61,41.47,21.61,14.16,0,24.56-8.25,31.76-19.94l30,1.57h.07a1.4,1.4,0,0,0,1.4-1.33,1.42,1.42,0,0,0-1.33-1.47l-28.59-1.48q1.45-2.62,2.71-5.41l38.78-2.34A1.41,1.41,0,0,0,144,89,1.47,1.47,0,0,0,142.52,87.67ZM70.85,102a6.88,6.88,0,1,1,6.88-6.87A6.88,6.88,0,0,1,70.85,102Z" transform="translate(0 -23.14)"/></svg>